# AST/ASF file generated using VICON BodyLanguage
# -----------------------------------------------
:version 1.10
:name VICON
:units
  mass 1.0
  length 0.45
  angle deg
:documentation
   .ast/.asf automatically generated from VICON data using
   VICON BodyBuilder and BodyLanguage model FoxedUp or BRILLIANT.MOD
:root
   order TX TY TZ RX RY RZ
   axis XYZ
   position 0 0 0  
   orientation 0 0 0 
:bonedata
  begin
     id 1 
     name lhipjoint
     direction 0.627457 -0.725269 0.283342 
     length 2.53237 
     axis 0 0 0  XYZ
  end
  begin
     id 2 
     name lfemur
     direction 0.34202 -0.939693 0  
     length 7.32496  
     axis 0 0 20  XYZ
    dof rx ry rz
    limits (-160.0 20.0)
           (-70.0 70.0)
           (-60.0 70.0)
  end
  begin
     id 3 
     name ltibia
     direction 0.34202 -0.939693 0   
     length 7.69674   
     axis 0 0 20   XYZ
    dof rx
    limits (-10.0 170.0)
  end
  begin
     id 4 
     name lfoot
     direction 0.127289 -0.349722 0.928166   
     length 1.8612   
     axis -90 7.62852e-016 20   XYZ
    dof rx rz
    limits (-45.0 90.0)
           (-70.0 20.0)
  end
  begin
     id 5 
     name ltoes
     direction 1.53561e-011 -4.21864e-011 1   
     length 0.925608   
     axis -90 7.62852e-016 20   XYZ
    dof rx
    limits (-90.0 20.0)
  end
  begin
     id 6 
     name rhipjoint
     direction -0.609094 -0.738725 0.288599   
     length 2.48624  
     axis 0 0 0  XYZ 
  end
  begin
     id 7 
     name rfemur
     direction -0.34202 -0.939693 0   
     length 7.44259   
     axis 0 0 -20   XYZ
    dof rx ry rz
    limits (-160.0 20.0)
           (-70.0 70.0)
           (-70.0 60.0)
  end
  begin
     id 8 
     name rtibia
     direction -0.34202 -0.939693 0   
     length 7.7781   
     axis 0 0 -20   XYZ
    dof rx
    limits (-10.0 170.0)
 end
 begin
     id 9 
     name rfoot
     direction -0.107015 -0.294021 0.949789   
     length 2.14741  
     axis -90 -7.62852e-016 -20   XYZ
    dof rx rz
    limits (-45.0 90.0)
           (-20.0 70.0)
  end
  begin
     id 10 
     name rtoes
     direction -1.53497e-011 -4.21924e-011 1   
     length 1.0706   
     axis -90 -7.62852e-016 -20   XYZ
    dof rx
    limits (-90.0 20.0)
  end
  begin
     id 11 
     name lowerback
     direction -0.0142066 0.998112 -0.0597545   
     length 1.86627   
     axis 0 0 0   XYZ
    dof rx ry rz
    limits (-20.0 45.0)
           (-30.0 30.0)
           (-30.0 30.0)
  end
  begin
     id 12 
     name upperback
     direction 0.00547294 0.999744 0.0219437   
     length 1.86272   
     axis 0 0 0   XYZ
    dof rx ry rz
    limits (-20.0 45.0)
           (-30.0 30.0)
           (-30.0 30.0)
  end
  begin
     id 13 
     name thorax
     direction 0.0116162 0.998704 0.0495538   
     length 1.8703   
     axis 0 0 0   XYZ
    dof rx ry rz
    limits (-20.0 45.0)
           (-30.0 30.0)
           (-30.0 30.0)
  end
  begin
     id 14 
     name lowerneck
     direction -0.0106574 0.998739 0.0490586   
     length 1.8074   
     axis 0 0 0   XYZ
    dof rx ry rz
    limits (-20.0 45.0)
           (-30.0 30.0)
           (-30.0 30.0)
  end
  begin
     id 15 
     name upperneck
     direction 0.030527 0.976587 -0.212944   
     length 1.80681   
     axis 0 0 0   XYZ
    dof rx ry rz
    limits (-20.0 45.0)
           (-30.0 30.0)
           (-30.0 30.0)
  end
  begin
     id 16
     name head
     direction 0.00869225 0.997035 -0.0764531  
     length 1.8313  
     axis 0 0 0   XYZ
    dof rx ry rz
    limits (-20.0 45.0)
           (-30.0 30.0)
           (-30.0 30.0)
  end
  begin
     id 17 
     name lclavicle
     direction 0.915958 0.399447 0.0382386  
     length 3.78965  
     axis 0 0 0   XYZ
    dof ry rz
    limits (-20.0 10.0)
           (0.0 20.0)
  end
  begin
     id 18 
     name lhumerus
     direction 1 -4.48967e-011 3.19303e-027   
     length 4.78095   
     axis -180 -30 -90   XYZ
    dof rx ry rz
    limits (-60.0 90.0)
           (-90.0 90.0)
           (-90.0 90.0)
  end
  begin
     id 19
     name lradius
     direction 1 -4.48967e-011 -3.77974e-027   
     length 3.58615   
     axis -180 -30 -90   XYZ
    dof rx
    limits (-10.0 170.0)
  end
  begin
     id 20
     name lwrist
     direction 1 -4.48927e-011 1.2807e-027   
     length 1.79307   
     axis 1.91374e-015 90 90   XYZ
    dof ry
    limits (-180.0 0.0)
 end
  begin
     id 21 
     name lhand
     direction 1 -4.49036e-011 2.5614e-027   
     length 0.659812   
     axis -1.63439e-015 90 90   XYZ
    dof rx rz
    limits (-90.0 90.0)
           (-45.0 45.0)
  end
  begin
     id 22 
     name lfingers
     direction 1 -4.49052e-011 5.1228e-027   
     length 0.531957   
     axis -3.26879e-015 90 90   XYZ
    dof rx
    limits (0.0 90.0)
  end
  begin
     id 23
     name lthumb
     direction 0.707107 -6.35012e-011 0.707107   
     length 0.763787   
     axis -90 45 2.85299e-015   XYZ
    dof rx rz
    limits (-45.0 45.0)
           (-45.0 45.0)
  end
  begin
     id 24 
     name rclavicle
     direction -0.895351 0.435135 0.0948887   
     length 3.70497  
     axis 0 0 0   XYZ 
    dof ry rz
    limits (-10.0 20.0)
           (-20.0 0.0)
  end
  begin
     id 25 
     name rhumerus
     direction -1 -4.48971e-011 2.38946e-027  
     length 4.48913   
     axis -180 30 90   XYZ
    dof rx ry rz
    limits (-90.0 60.0)
           (-90.0 90.0)
           (-90.0 90.0)
  end
  begin
     id 26 
     name rradius
     direction -1 -4.4895e-011 4.38668e-027   
     length 3.7051   
     axis -180 30 90   XYZ
    dof rx
    limits (-10.0 170.0)
  end
  begin
     id 27 
     name rwrist
     direction -1 -4.49007e-011 1.2807e-027   
     length 1.85255   
     axis 1.91374e-015 -90 -90   XYZ
    dof ry
    limits (-180.0 0.0)
  end
  begin
     id 28
     name rhand
     direction -1 -4.48851e-011 2.5614e-027   
     length 0.449136   
     axis -1.63439e-015 -90 -90   XYZ
    dof rx rz
    limits (-90.0 90.0)
           (-45.0 45.0)
  end
  begin
     id 29
     name rfingers
     direction -1 -4.49128e-011 5.1228e-027   
     length 0.362105   
     axis -3.26879e-015 -90 -90   XYZ
    dof rx
    limits (0.0 90.0)
  end
  begin
     id 30
     name rthumb
     direction -0.707107 -6.34851e-011 0.707107   
     length 0.519912   
     axis -90 -45 -2.85299e-015   XYZ
    dof rx rz
    limits (-45.0 45.0)
           (-45.0 45.0)
  end
:hierarchy
  begin
    root lhipjoint rhipjoint lowerback
    lhipjoint lfemur
    lfemur ltibia
    ltibia lfoot
    lfoot ltoes
    rhipjoint rfemur
    rfemur rtibia
    rtibia rfoot
    rfoot rtoes
    lowerback upperback
    upperback thorax
    thorax lowerneck lclavicle rclavicle
    lowerneck upperneck
    upperneck head
    lclavicle lhumerus
    lhumerus lradius
    lradius lwrist
    lwrist lhand lthumb
    lhand lfingers
    rclavicle rhumerus
    rhumerus rradius
    rradius rwrist
    rwrist rhand rthumb
    rhand rfingers
  end

#!OML:ASF I:\Actors\actors\Patient Classification 2\Patient 1\Session 1\actor1.ASF
:FULLY-SPECIFIED
:DEGREES
33
root -0.744715 18.5873 6.29672 -0.128375 -4.44901 -6.50177
lowerback 4.70756 0.764652 4.43034
upperback -3.55849 1.42045 1.09467
thorax -6.27906 0.531892 -1.48374
lowerneck -7.33677 -0.3223 1.00816
upperneck 22.5253 -0.669634 0.212332
head 8.168 -0.218923 -0.161956
rclavicle -1.41137e-014 2.38542e-015
rhumerus -55.2795 -15.77 -77.5458
rradius 44.5139
rwrist 23.8123
rhand 1.59031 -34.9417
rfingers 7.12502
rthumb 27.1127 -63.0146
lclavicle -1.41137e-014 2.38542e-015
lhumerus -45.1621 3.06756 87.3961
lradius 37.2236
lwrist -9.95047
lhand -1.54171 -23.1741
lfingers 7.12502
lthumb 24.1129 5.33068
rfemur 10.3503 1.41341 20.6932
rtibia 2.54444e-014
rfoot -15.6884 -8.13412
rtoes -8.99526
lfemur -1.90431 -3.37897 -7.71443
ltibia 24.9626
lfoot -24.9195 11.9969
ltoes -56.3346
34
root -0.74486 18.5882 6.29472 -0.0986232 -4.42623 -6.47888
lowerback 4.73217 0.762212 4.42604
upperback -3.54526 1.41647 1.07086
thorax -6.27888 0.529714 -1.50615
lowerneck -7.29072 -0.32311 1.12879
upperneck 22.436 -0.665813 0.109161
head 8.12876 -0.217492 -0.216012
rclavicle 2.88238e-015 -4.45278e-014
rhumerus -55.2697 -15.7921 -77.5515
rradius 44.5503
rwrist 23.7889
rhand 1.64154 -35.1811
rfingers 7.12502
rthumb 27.1617 -63.2463
lclavicle 2.88238e-015 -4.45278e-014
lhumerus -45.1166 3.0198 87.4004
lradius 37.2493
lwrist -9.86337
lhand -1.54035 -23.1217
lfingers 7.12502
lthumb 24.1142 5.3829
rfemur 10.3142 1.3913 20.6673
rtibia -3.18055e-014
rfoot -15.6434 -8.15299
rtoes -8.88488
lfemur -1.94539 -3.39103 -7.73496
ltibia 24.9444
lfoot -24.894 11.9641
ltoes -56.3119
35
root -0.745364 18.5886 6.29219 -0.0853631 -4.41517 -6.46675
lowerback 4.79175 0.761721 4.41271
upperback -3.51831 1.41754 1.07471
thorax -6.28488 0.531135 -1.49571
lowerneck -7.36007 -0.302663 0.994005
upperneck 22.4316 -0.652228 0.270975
head 8.14115 -0.206547 -0.138347
rclavicle -1.58034e-014 -3.97569e-015
rhumerus -55.2335 -15.781 -77.535
rradius 44.5787
rwrist 23.7728
rhand 1.60004 -35.3374
rfingers 7.12502
rthumb 27.122 -63.4088
lclavicle -1.58034e-014 -3.97569e-015
lhumerus -45.0184 3.02144 87.4339
lradius 37.2206
lwrist -9.85147
lhand -1.56774 -23.1544
lfingers 7.12502
lthumb 24.0879 5.35359
rfemur 10.2949 1.38057 20.6536
rtibia -1.11319e-014
rfoot -15.6247 -8.15331
rtoes -8.69361
lfemur -1.96935 -3.36186 -7.73582
ltibia 24.9248
lfoot -24.8475 11.9435
ltoes -56.3142
36
root -0.746018 18.5898 6.28984 -0.0656215 -4.40114 -6.44367
lowerback 4.84061 0.755318 4.37602
upperback -3.50478 1.40918 1.08573
thorax -6.30007 0.528733 -1.46368
lowerneck -7.4947 -0.285814 0.711863
upperneck 22.5555 -0.652842 0.572802
head 8.20953 -0.200312 0.00934206
rclavicle -1.51573e-015 -1.03368e-014
rhumerus -55.1942 -15.7514 -77.5048
rradius 44.5503
rwrist 23.7885
rhand 1.47524 -35.2777
rfingers 7.12502
rthumb 27.0026 -63.3677
lclavicle -1.51573e-015 -1.03368e-014
lhumerus -44.9802 3.01726 87.4845
lradius 37.2279
lwrist -9.84026
lhand -1.63728 -23.2365
lfingers 7.12502
lthumb 24.0212 5.2803
rfemur 10.2717 1.36666 20.6314
rtibia 4.77083e-015
rfoot -15.6157 -8.16689
rtoes -8.92272
lfemur -2.0026 -3.34406 -7.75314
ltibia 24.9174
lfoot -24.7899 11.9401
ltoes -56.2998
37
root -0.745665 18.5907 6.28736 -0.0510031 -4.37924 -6.42788
lowerback 4.8879 0.744017 4.3629
upperback -3.50308 1.39586 1.08744
thorax -6.32654 0.522223 -1.45408
lowerneck -7.56561 -0.291843 0.591619
upperneck 22.6609 -0.670103 0.691662
head 8.2589 -0.206367 0.0675397
rclavicle -1.55797e-014 7.95139e-015
rhumerus -55.1964 -15.714 -77.4936
rradius 44.5163
rwrist 23.798
rhand 1.3904 -35.1567
rfingers 7.12502
rthumb 26.9214 -63.2592
lclavicle -1.55797e-014 7.95139e-015
lhumerus -44.9851 3.0066 87.5042
lradius 37.2398
lwrist -9.876
lhand -1.6662 -23.2907
lfingers 7.12502
lthumb 23.9935 5.22984
rfemur 10.2463 1.34535 20.6116
rtibia 2.06736e-014
rfoot -15.6344 -8.1697
rtoes -9.06828
lfemur -2.03076 -3.35467 -7.77215
ltibia 24.9193
lfoot -24.7648 11.9324
ltoes -56.2862
38
root -0.744364 18.591 6.28383 -0.0498346 -4.34379 -6.42911
lowerback 4.95907 0.732204 4.40223
upperback -3.49701 1.38647 1.07776
thorax -6.36075 0.514945 -1.48646
lowerneck -7.55096 -0.294377 0.660403
upperneck 22.6594 -0.669235 0.622463
head 8.25525 -0.206933 0.0329253
rclavicle 2.00027e-014 6.36111e-015
rhumerus -55.2219 -15.712 -77.4848
rradius 44.51
rwrist 23.8078
rhand 1.3963 -35.1044
rfingers 7.12502
rthumb 26.9271 -63.2061
lclavicle 2.00027e-014 6.36111e-015
lhumerus -44.9766 2.95935 87.5249
lradius 37.2508
lwrist -9.86943
lhand -1.66241 -23.2588
lfingers 7.12502
lthumb 23.9972 5.26119
rfemur 10.2317 1.31087 20.6042
rtibia -1.59028e-014
rfoot -15.6681 -8.14521
rtoes -8.69141
lfemur -2.06038 -3.31817 -7.76085
ltibia 24.9269
lfoot -24.7332 11.891
ltoes -56.3384
39
root -0.744209 18.5918 6.28065 -0.028097 -4.31642 -6.42456
lowerback 5.00905 0.73517 4.43388
upperback -3.49571 1.3953 1.06897
thorax -6.38693 0.517115 -1.51512
lowerneck -7.53812 -0.304591 0.72239
upperneck 22.6615 -0.675627 0.543225
head 8.25308 -0.212405 -0.00455062
rclavicle -8.00108e-015 0
rhumerus -55.2457 -15.7501 -77.4506
rradius 44.5107
rwrist 23.8099
rhand 1.41548 -35.1289
rfingers 7.12502
rthumb 26.9454 -63.2278
lclavicle -8.00108e-015 0
lhumerus -44.9999 2.82833 87.5995
lradius 37.3102
lwrist -9.74813
lhand -1.72104 -23.1798
lfingers 7.12502
lthumb 23.9409 5.34761
rfemur 10.203 1.28402 20.5965
rtibia 6.36111e-015
rfoot -15.6681 -8.15392
rtoes -8.57147
lfemur -2.11657 -3.27683 -7.75088
ltibia 24.9435
lfoot -24.7176 11.8558
ltoes -56.3826
40
root -0.745021 18.5923 6.27847 0.00123193 -4.31478 -6.4105
lowerback 5.0245 0.74848 4.42106
upperback -3.48545 1.41255 1.06745
thorax -6.38411 0.526348 -1.51151
lowerneck -7.55411 -0.323727 0.718195
upperneck 22.7023 -0.700112 0.534114
head 8.26976 -0.224959 -0.00920722
rclavicle -1.91579e-014 -3.97569e-016
rhumerus -55.2458 -15.7587 -77.4512
rradius 44.5345
rwrist 23.7835
rhand 1.43006 -35.2199
rfingers 7.12502
rthumb 26.9594 -63.3166
lclavicle -1.91579e-014 -3.97569e-016
lhumerus -44.9928 2.73315 87.655
lradius 37.328
lwrist -9.71215
lhand -1.81231 -23.1164
lfingers 7.12502
lthumb 23.8534 5.42245
rfemur 10.164 1.28246 20.5839
rtibia 3.18055e-015
rfoot -15.6453 -8.17846
rtoes -8.76065
lfemur -2.16844 -3.27516 -7.76132
ltibia 24.9627
lfoot -24.7304 11.8246
ltoes -56.3536
41
root -0.745877 18.5923 6.27705 0.0131893 -4.32868 -6.42137
lowerback 5.02556 0.762668 4.43685
upperback -3.45289 1.4311 1.05831
thorax -6.34855 0.535779 -1.53156
lowerneck -7.53372 -0.344949 0.751306
upperneck 22.6677 -0.729614 0.512022
head 8.25412 -0.238532 -0.0248365
rclavicle -8.3738e-015 -7.95139e-015
rhumerus -55.2286 -15.7597 -77.5016
rradius 44.5711
rwrist 23.722
rhand 1.42774 -35.2603
rfingers 7.12502
rthumb 26.9572 -63.3573
lclavicle -8.3738e-015 -7.95139e-015
lhumerus -44.9156 2.70189 87.6408
lradius 37.2662
lwrist -9.81128
lhand -1.79477 -23.0718
lfingers 7.12502
lthumb 23.8702 5.46491
rfemur 10.1439 1.29557 20.6024
rtibia 2.38542e-014
rfoot -15.5862 -8.19367
rtoes -9.00514
lfemur -2.19063 -3.24402 -7.74041
ltibia 24.9752
lfoot -24.7301 11.7737
ltoes -56.3221
42
root -0.746664 18.5927 6.27613 0.0172257 -4.35687 -6.43951
lowerback 5.01604 0.776227 4.48128
upperback -3.41404 1.44976 1.04205
thorax -6.29951 0.544239 -1.57481
lowerneck -7.49321 -0.361631 0.81431
upperneck 22.5955 -0.749835 0.457645
head 8.22184 -0.248603 -0.0553142
rclavicle 1.00386e-014 -1.23246e-014
rhumerus -55.2106 -15.7853 -77.5454
rradius 44.5762
rwrist 23.6568
rhand 1.39582 -35.2222
rfingers 7.12502
rthumb 26.9266 -63.3239
lclavicle 1.00386e-014 -1.23246e-014
lhumerus -44.8727 2.6493 87.6284
lradius 37.2339
lwrist -9.83637
lhand -1.78512 -23.082
lfingers 7.12502
lthumb 23.8795 5.45346
rfemur 10.1367 1.32293 20.6282
rtibia -7.95139e-015
rfoot -15.532 -8.21583
rtoes -9.30038
lfemur -2.1912 -3.21097 -7.71718
ltibia 24.9847
lfoot -24.7616 11.7732
ltoes -56.2786
43
root -0.747078 18.5931 6.2747 0.0228967 -4.382 -6.45395
lowerback 5.02727 0.77569 4.50477
upperback -3.39127 1.45121 1.05108
thorax -6.28156 0.544845 -1.5787
lowerneck -7.4674 -0.345146 0.814929
upperneck 22.5789 -0.723169 0.442887
head 8.21146 -0.237483 -0.0577947
rclavicle -1.44367e-014 3.57812e-015
rhumerus -55.2088 -15.7813 -77.5464
rradius 44.561
rwrist 23.653
rhand 1.45011 -35.1994
rfingers 7.12502
rthumb 26.9786 -63.2931
lclavicle -1.44367e-014 3.57812e-015
lhumerus -44.8968 2.61546 87.6652
lradius 37.2513
lwrist -9.73417
lhand -1.93559 -23.1336
lfingers 7.12502
lthumb 23.7352 5.42071
rfemur 10.1236 1.34798 20.6436
rtibia 2.70347e-014
rfoot -15.5506 -8.20726
rtoes -9.28502
lfemur -2.19496 -3.21583 -7.70448
ltibia 24.9938
lfoot -24.8016 11.8067
ltoes -56.2343
44
root -0.747645 18.593 6.2727 0.0355264 -4.4015 -6.49117
lowerback 5.04568 0.766625 4.52431
upperback -3.3689 1.44298 1.08756
thorax -6.26955 0.541363 -1.5509
lowerneck -7.47901 -0.32096 0.807553
upperneck 22.5986 -0.679168 0.40075
head 8.22013 -0.22118 -0.0665855
rclavicle -1.10574e-014 -1.55052e-014
rhumerus -55.1954 -15.7619 -77.5226
rradius 44.5399
rwrist 23.6938
rhand 1.50702 -35.1642
rfingers 7.12502
rthumb 27.033 -63.2494
lclavicle -1.10574e-014 -1.55052e-014
lhumerus -44.9153 2.63495 87.7161
lradius 37.2907
lwrist -9.63175
lhand -2.03307 -23.1244
lfingers 7.12502
lthumb 23.6417 5.442
rfemur 10.1008 1.36694 20.6864
rtibia 4.77083e-015
rfoot -15.5855 -8.19019
rtoes -9.19102
lfemur -2.21159 -3.19134 -7.65228
ltibia 24.9955
lfoot -24.7681 11.768
ltoes -56.1997
45
root -0.748087 18.5932 6.2707 0.0538024 -4.42645 -6.50232
lowerback 5.04514 0.770626 4.52392
upperback -3.34257 1.44828 1.10501
thorax -6.24144 0.545384 -1.53281
lowerneck -7.53822 -0.318139 0.809745
upperneck 22.6444 -0.666022 0.35308
head 8.24626 -0.219023 -0.0818285
rclavicle 1.49337e-014 -1.31198e-014
rhumerus -55.176 -15.7664 -77.5148
rradius 44.5327
rwrist 23.7084
rhand 1.49178 -35.1915
rfingers 7.12502
rthumb 27.0185 -63.279
lclavicle 1.49337e-014 -1.31198e-014
lhumerus -44.9099 2.67489 87.736
lradius 37.3107
lwrist -9.62305
lhand -1.99437 -23.1117
lfingers 7.12502
lthumb 23.6788 5.44993
rfemur 10.0699 1.39151 20.7025
rtibia 0
rfoot -15.5793 -8.20518
rtoes -9.25183
lfemur -2.23269 -3.16863 -7.6321
ltibia 24.9932
lfoot -24.7476 11.7309
ltoes -56.1238
46
root -0.748263 18.5947 6.26791 0.0769678 -4.43586 -6.45409
lowerback 5.06262 0.775721 4.48021
upperback -3.34581 1.45174 1.08573
thorax -6.25501 0.548176 -1.5292
lowerneck -7.54024 -0.307248 0.792126
upperneck 22.6778 -0.656118 0.388437
head 8.25811 -0.212196 -0.0661846
rclavicle 1.22998e-014 8.34896e-015
rhumerus -55.2045 -15.7581 -77.5488
rradius 44.5452
rwrist 23.6971
rhand 1.48967 -35.3468
rfingers 7.12502
rthumb 27.0164 -63.4346
lclavicle 1.22998e-014 8.34896e-015
lhumerus -44.9453 2.71894 87.7072
lradius 37.2956
lwrist -9.69579
lhand -1.93421 -23.1837
lfingers 7.12502
lthumb 23.7365 5.37041
rfemur 10.0332 1.40161 20.6497
rtibia -1.90833e-014
rfoot -15.5458 -8.22389
rtoes -9.25183
lfemur -2.26819 -3.19302 -7.69192
ltibia 24.9956
lfoot -24.7497 11.7779
ltoes -56.1436
